<svg width="43" height="43" viewBox="0 0 43 43" fill="none" xmlns="http://www.w3.org/2000/svg">
<g clip-path="url(#clip0_972_11545)">
<path d="M36.3115 17.5724L36.1472 17.064L35.7467 17.4178L33.3609 19.5263L33.2306 19.6415L33.2436 19.8149L34.7485 39.7793L4.59405 39.1731L5.12189 9.1853L23.6593 8.02132L23.7484 8.01572L23.824 7.96808L24.5341 7.52038L24.9464 7.26042L24.5683 6.95281L23.8582 6.37514L23.7657 6.29986L23.6464 6.29677L3.08252 5.76242L2.98876 5.75999L2.90635 5.80476L0.832918 6.93121L0.649823 7.03069L0.65 7.23906L0.678403 40.7005L0.678656 40.998L0.97229 41.0457L3.01732 41.3778L3.04009 41.3815L3.06314 41.3822L35.9682 42.3498L36.1143 42.3541L36.22 42.2533L37.5834 40.9535L37.6968 40.8454L37.6917 40.6888L37.01 19.7772L37.0084 19.7279L36.9932 19.6809L36.3115 17.5724Z" fill="black" stroke="black" stroke-width="0.7"/>
<path d="M40.3587 1.34529L40.2639 1.23851L40.1214 1.22853L31.8845 0.650858L31.7027 0.638105L31.588 0.779794L29.8696 2.90272L29.6247 3.20529L29.9515 3.41677L31.6699 4.52878L31.7451 4.57746L31.8345 4.58401L36.2058 4.90417L18.4601 22.9079L18.3305 23.0393L18.3658 23.2204L18.6356 24.6068L18.6708 24.7878L18.8399 24.8611L20.7713 25.6987L20.9991 25.7975L21.1677 25.6151L38.1775 7.20626L37.9015 11.404L37.8892 11.5916L38.0388 11.7055L39.8424 13.0774L40.1203 13.2888L40.3323 13.0115L41.2312 11.8363L42.0265 11.7759L42.3733 11.7496L42.3491 11.4026L41.7669 3.04085L41.7586 2.92193L41.6794 2.83278L40.3587 1.34529Z" fill="black" stroke="black" stroke-width="0.7"/>
</g>
<defs>
<clipPath id="clip0_972_11545">
<rect width="43" height="43" fill="white"/>
</clipPath>
</defs>
</svg>
