<svg width="14" height="14" viewBox="0 0 14 14" xmlns="http://www.w3.org/2000/svg">
<path d="M6.99976 0.33252C10.6822 0.33252 13.6674 3.31775 13.6674 7.00024C13.6674 10.6827 10.6822 13.6679 6.99976 13.6679C3.31726 13.6679 0.332031 10.6827 0.332031 7.00024C0.332031 3.31775 3.31726 0.33252 6.99976 0.33252ZM6.99722 5.83291C6.65529 5.83311 6.37369 6.09071 6.33542 6.42224L6.33096 6.50004L6.33336 10.1678L6.33789 10.2455C6.37663 10.577 6.65856 10.8342 7.00049 10.834C7.34236 10.8338 7.62396 10.5762 7.66229 10.2446L7.66669 10.1668L7.66429 6.49917L7.65976 6.42137C7.62103 6.08984 7.33909 5.83271 6.99722 5.83291ZM7.00002 3.33321C6.53922 3.33321 6.16569 3.70676 6.16569 4.16756C6.16569 4.62835 6.53922 5.00191 7.00002 5.00191C7.46082 5.00191 7.83436 4.62835 7.83436 4.16756C7.83436 3.70676 7.46082 3.33321 7.00002 3.33321Z" fill="#212121"/>
</svg>
