<svg width="13" height="18" viewBox="0 0 13 18" fill="none" xmlns="http://www.w3.org/2000/svg">
<path d="M6.40503 11.0088L7.50073 11.6185L8.4714 12.2905L9.23343 13.1471L9.24437 13.1594L9.25683 13.1701L10.1551 13.9457L11.0005 14.7745L11.0229 14.7964L11.0499 14.8121L12.1063 15.4258L12.6242 16.0029L11.6765 16.8384L10.5587 17.6897L9.82091 17.1655L9.03216 16.3856L9.03157 16.3851L8.22306 15.5909L8.22324 15.5907L8.21463 15.583L7.34761 14.8067L7.3276 14.7888L7.30424 14.7756L6.27792 14.1931L5.59025 13.3173L5.56614 13.2866L5.53381 13.2647L4.53913 12.591L4.52582 12.582L4.51146 12.5747L3.43131 12.0303L2.55483 11.2908L2.54865 11.2856L2.54215 11.2808L1.62479 10.6031L0.875975 9.79624L0.323929 9.18361L0.799386 8.55449L1.66066 7.8321L1.6717 7.82284L1.68161 7.81237L2.42908 7.02225L3.48717 6.47512L3.5012 6.46787L3.5142 6.45891L4.49824 5.78077L4.51581 5.76866L4.53107 5.75375L5.35423 4.94972L6.33937 4.30267L6.37224 4.28108L6.39689 4.25045L7.08541 3.3949L8.11897 2.80266L8.14255 2.78915L8.16267 2.77089L9.00841 2.00353L9.02246 1.99079L9.03441 1.97608L9.72625 1.12501L10.5431 0.614713L11.5514 1.62882L11.566 1.64345L11.5827 1.65549L12.618 2.4003L12.0774 2.95346L11.185 3.7462L11.1784 3.75211L11.1722 3.75848L10.3553 4.59544L9.31135 5.20661L8.22769 5.82146L8.22033 5.82564L8.21327 5.8303L7.18667 6.50844L7.16369 6.52363L7.14456 6.54345L6.30945 7.40897L6.30924 7.40919L5.49141 8.25888L4.6475 9.01095L4.45522 9.18231L4.63222 9.3694L5.40882 10.1903L5.41945 10.2015L5.43139 10.2114L6.36756 10.9832L6.38513 10.9977L6.40503 11.0088Z" fill="black" stroke="#FFFDFD" stroke-width="0.5"/>
</svg>
